<svg width="17" height="17" viewBox="0 0 17 17" fill="none" xmlns="http://www.w3.org/2000/svg">
<path d="M2.83335 1.41667H14.1667C14.5424 1.41667 14.9027 1.56593 15.1684 1.8316C15.4341 2.09728 15.5834 2.45762 15.5834 2.83334V14.1667C15.5834 14.5424 15.4341 14.9027 15.1684 15.1684C14.9027 15.4341 14.5424 15.5833 14.1667 15.5833H2.83335C2.06835 15.5833 1.41669 14.9458 1.41669 14.1667V2.83334C1.41669 2.45762 1.56594 2.09728 1.83162 1.8316C2.0973 1.56593 2.45763 1.41667 2.83335 1.41667V1.41667ZM2.83335 2.83334V7.79167H7.79169V2.83334H2.83335ZM2.83335 14.1667H7.79169V9.20834H2.83335V14.1667ZM14.1667 14.1667V9.20834H9.20835V14.1667H14.1667ZM14.1667 2.83334H9.20835V7.79167H14.1667V2.83334Z" fill="#22215B"/>
</svg>
