<svg width="17" height="17" viewBox="0 0 17 17" fill="none" xmlns="http://www.w3.org/2000/svg">
<path d="M1.41669 4.25001C1.41669 4.06214 1.49131 3.88198 1.62415 3.74914C1.75699 3.6163 1.93716 3.54167 2.12502 3.54167H14.875C15.0629 3.54167 15.2431 3.6163 15.3759 3.74914C15.5087 3.88198 15.5834 4.06214 15.5834 4.25001C15.5834 4.43787 15.5087 4.61803 15.3759 4.75087C15.2431 4.88371 15.0629 4.95834 14.875 4.95834H2.12502C1.93716 4.95834 1.75699 4.88371 1.62415 4.75087C1.49131 4.61803 1.41669 4.43787 1.41669 4.25001V4.25001Z" fill="#22215B"/>
<path d="M1.41669 8.52268C1.41669 8.33482 1.49131 8.15465 1.62415 8.02181C1.75699 7.88897 1.93716 7.81435 2.12502 7.81435H14.875C15.0629 7.81435 15.2431 7.88897 15.3759 8.02181C15.5087 8.15465 15.5834 8.33482 15.5834 8.52268C15.5834 8.71054 15.5087 8.89071 15.3759 9.02355C15.2431 9.15639 15.0629 9.23101 14.875 9.23101H2.12502C1.93716 9.23101 1.75699 9.15639 1.62415 9.02355C1.49131 8.89071 1.41669 8.71054 1.41669 8.52268V8.52268Z" fill="#22215B"/>
<path d="M2.12502 12.087C1.93716 12.087 1.75699 12.1616 1.62415 12.2945C1.49131 12.4273 1.41669 12.6075 1.41669 12.7953C1.41669 12.9832 1.49131 13.1634 1.62415 13.2962C1.75699 13.429 1.93716 13.5037 2.12502 13.5037H14.875C15.0629 13.5037 15.2431 13.429 15.3759 13.2962C15.5087 13.1634 15.5834 12.9832 15.5834 12.7953C15.5834 12.6075 15.5087 12.4273 15.3759 12.2945C15.2431 12.1616 15.0629 12.087 14.875 12.087H2.12502Z" fill="#22215B"/>
</svg>
